<svg width="32" height="32" viewBox="0 0 32 32" fill="none" xmlns="http://www.w3.org/2000/svg">
<path d="M31.6988 14.4945L27.5532 9.60845L30.0136 3.64411C30.3843 2.7006 29.3058 1.62231 28.3958 2.02667L22.3964 4.45284L17.5093 0.308129C17.1386 -0.0288398 16.5993 -0.0962334 16.1275 0.139644C15.6893 0.375522 15.4197 0.847278 15.4534 1.35273L15.9252 7.75513L10.4315 11.1248C9.9933 11.3944 9.79107 11.8998 9.85848 12.3716C9.92589 12.877 10.2966 13.2814 10.8022 13.3825L15.6556 14.5956L0.353894 29.8939C-0.117965 30.3657 -0.117965 31.1744 0.353894 31.6462C0.825753 32.1179 1.63465 32.1179 2.10651 31.6462L17.4082 16.3478L18.5879 21.1665C18.6553 21.4023 18.7564 21.6045 18.9249 21.7393C19.0934 21.9078 19.3294 22.0426 19.599 22.0763C20.1046 22.1437 20.5764 21.9415 20.8461 21.5034L24.2165 16.0109L30.6203 16.4826C31.1258 16.5163 31.5977 16.2467 31.8336 15.8087C32.1033 15.438 32.0359 14.8989 31.6988 14.4945ZM23.6772 13.5173C23.2053 13.4836 22.7672 13.7195 22.5313 14.0901L20.3068 17.6957L19.3294 13.6184C19.262 13.3825 19.1608 13.1803 18.9923 13.0455C18.8238 12.877 18.6216 12.776 18.4194 12.7086L14.3074 11.6977L17.8801 9.47367C18.2845 9.23779 18.5205 8.79973 18.4531 8.32798L18.1497 4.14957L21.3516 6.87901C21.7224 7.18228 22.1942 7.24968 22.6324 7.08119L26.5084 5.49744L24.9243 9.37258C24.7557 9.77694 24.8569 10.2824 25.1602 10.6194L27.8902 13.8206L23.6772 13.5173Z" fill="black"/>
</svg>
