<svg width="126" height="49" viewBox="0 0 126 49" fill="none" xmlns="http://www.w3.org/2000/svg">
<path d="M62.5871 15.9665L60.1705 18.5267V22.8042H55.5333V5.44444H60.1705V12.9379L67.1427 5.44444H72.5147L65.7385 12.6569L72.9555 22.8667H67.4039L62.5871 15.9665Z" fill="black"/>
<path d="M82.7542 5.53791C82.7542 5.98684 82.6265 6.42568 82.3873 6.79895C82.1481 7.17221 81.808 7.46314 81.4102 7.63494C81.0124 7.80673 80.5747 7.85168 80.1524 7.7641C79.7301 7.67652 79.3421 7.46034 79.0377 7.1429C78.7332 6.82547 78.5259 6.42103 78.4419 5.98073C78.3579 5.54043 78.401 5.08405 78.5657 4.6693C78.7305 4.25455 79.0096 3.90005 79.3676 3.65064C79.7256 3.40124 80.1465 3.26811 80.5771 3.26811C80.8658 3.25716 81.1536 3.30837 81.4225 3.41856C81.6914 3.52875 81.9356 3.69555 82.1399 3.90855C82.3442 4.12154 82.5042 4.37616 82.6099 4.6565C82.7156 4.93684 82.7647 5.23689 82.7542 5.53791ZM78.5352 22.8667V9.4044H82.6491V22.8667H78.5352Z" fill="black"/>
<path d="M102.329 16.9789H92.7236C92.8766 17.7122 93.2804 18.3689 93.8651 18.8351C94.4498 19.3013 95.1786 19.5479 95.9255 19.532C96.5411 19.5275 97.1497 19.4003 97.7159 19.1577C98.2821 18.9152 98.7945 18.562 99.2233 18.119L101.545 20.3991C100.769 21.212 99.8294 21.8501 98.7888 22.2709C97.7482 22.6917 96.6303 22.8856 95.5092 22.8397C94.5551 22.9256 93.5936 22.8055 92.6896 22.4876C91.7856 22.1696 90.96 21.6611 90.2683 20.9962C89.5767 20.3314 89.035 19.5257 88.6798 18.6333C88.3246 17.7409 88.1641 16.7826 88.2091 15.8228C88.1596 14.8694 88.3119 13.9164 88.6562 13.0263C89.0004 12.1363 89.5287 11.3294 90.2062 10.6589C90.8838 9.98846 91.6953 9.46952 92.5872 9.13629C93.4792 8.80306 94.4314 8.6631 95.3811 8.72562C100.312 8.74167 102.633 11.937 102.329 16.9789ZM98.0867 14.6025C98.118 14.2453 98.0744 13.8856 97.9587 13.5463C97.8431 13.2071 97.6579 12.8959 97.4151 12.6327C97.1724 12.3696 96.8774 12.1603 96.5491 12.0183C96.2209 11.8764 95.8666 11.8049 95.5092 11.8086C94.77 11.8313 94.066 12.1307 93.5358 12.6477C93.0055 13.1647 92.6872 13.862 92.6436 14.6025H98.0867Z" fill="black"/>
<path d="M113.589 19.7216H120.867V22.8667H107.8V20.3445L114.877 12.9603H108.068V9.8H120.632V12.3222L113.589 19.7216Z" fill="black"/>
<path d="M54.8038 47.9111V36.6106L50.5223 46.1797H47.5411L43.2595 36.6106V47.9111H39.2V30.4889H44.1792L49.0158 40.8464L53.8524 30.4889H58.8V47.9111H54.8038Z" fill="black"/>
<path d="M78.4 39.1264V48.7463H74.1596V47.0467C73.6588 47.6974 73.0236 48.2105 72.3058 48.5442C71.588 48.878 70.8078 49.0229 70.0286 48.9673C69.4321 49.0454 68.8271 48.9833 68.2545 48.7853C67.682 48.5872 67.1553 48.2579 66.7102 47.8195C66.265 47.3811 65.9118 46.8439 65.6744 46.2443C65.4371 45.6448 65.3211 44.9968 65.3344 44.3443C65.3344 41.5569 67.1652 39.9252 70.545 39.8912H74.1126V39.6703C74.1126 38.2256 73.2364 37.3418 71.4682 37.3418C70.0501 37.4156 68.6652 37.8337 67.4155 38.5655L66.1794 35.4552C68.1195 34.3788 70.2602 33.7975 72.4384 33.7556C76.2876 33.8575 78.3844 35.7951 78.4 39.1264ZM74.1283 43.7494V42.3557H71.39C70.0756 42.3557 69.434 42.8486 69.434 43.9364C69.434 45.0241 70.1382 45.636 71.343 45.636C71.9326 45.6906 72.5226 45.5363 73.0247 45.1962C73.5268 44.8561 73.914 44.3485 74.1283 43.7494V43.7494Z" fill="black"/>
<path d="M90.3544 36.2693C90.8001 35.4842 91.4415 34.8369 92.2117 34.3951C92.9819 33.9533 93.8527 33.7331 94.7333 33.7574V37.799C92.2244 37.5736 90.5726 38.7812 90.3544 40.7457V47.9111H86.0222V33.9023H90.3544V36.2693Z" fill="black"/>
<path d="M104.532 30.5799C104.532 31.0283 104.404 31.4667 104.165 31.8396C103.926 32.2124 103.586 32.503 103.188 32.6746C102.79 32.8463 102.352 32.8912 101.93 32.8037C101.508 32.7162 101.12 32.5002 100.815 32.1831C100.511 31.866 100.304 31.462 100.22 31.0222C100.136 30.5824 100.179 30.1265 100.343 29.7122C100.508 29.2979 100.787 28.9438 101.145 28.6947C101.503 28.4455 101.924 28.3125 102.355 28.3125C102.644 28.3017 102.931 28.3529 103.2 28.463C103.469 28.5731 103.713 28.7397 103.917 28.9525C104.122 29.1652 104.282 29.4195 104.387 29.6995C104.493 29.9795 104.542 30.2792 104.532 30.5799V30.5799ZM100.267 47.9111V34.4468H104.398V47.8956L100.267 47.9111Z" fill="black"/>
<path d="M125.197 42.6592H115.558C115.702 43.4496 116.095 44.1597 116.67 44.665C117.245 45.1704 117.965 45.4388 118.703 45.4234C119.31 45.4181 119.91 45.2819 120.468 45.0226C121.027 44.7633 121.533 44.3861 121.958 43.9125L124.254 46.3677C123.488 47.237 122.562 47.9202 121.538 48.3729C120.514 48.8255 119.414 49.0373 118.31 48.9946C113.859 48.9946 111.076 45.9557 111.076 41.4401C111.025 40.3977 111.18 39.3555 111.53 38.3839C111.879 37.4124 112.416 36.534 113.103 35.8082C113.79 35.0823 114.612 34.5259 115.513 34.1765C116.414 33.8271 117.373 33.6928 118.325 33.7827C123.121 33.7827 125.496 37.2165 125.197 42.6592ZM120.999 40.0838C121.028 39.6928 120.981 39.2996 120.861 38.93C120.741 38.5603 120.55 38.2225 120.302 37.9387C120.054 37.655 119.754 37.4317 119.422 37.2836C119.089 37.1354 118.731 37.0658 118.372 37.0792C117.642 37.108 116.949 37.4342 116.428 37.9934C115.907 38.5526 115.597 39.3044 115.558 40.1009L120.999 40.0838Z" fill="black"/>
<path d="M45.0323 20.4526L37.9694 13.4109L41.13 3.93119C41.2099 3.57422 41.1901 3.20231 41.0728 2.85571C40.9555 2.50912 40.7451 2.20103 40.4645 1.9648C40.1838 1.72857 39.8435 1.5732 39.4805 1.5155C39.1175 1.4578 38.7455 1.49997 38.4048 1.63744L29.3906 6.1287L21.3279 0.338181C21.0111 0.118048 20.6339 0 20.2475 0C19.861 0 19.4839 0.118048 19.1671 0.338181C18.8422 0.542286 18.5838 0.835886 18.4235 1.18329C18.2632 1.5307 18.2078 1.91695 18.2641 2.29509L19.8766 12.1277L11.8139 18.0305C11.4888 18.2305 11.2299 18.521 11.0694 18.8661C10.9088 19.2111 10.8537 19.5955 10.9108 19.9714C10.9932 20.35 11.1933 20.6931 11.4827 20.9522C11.7722 21.2113 12.1363 21.3733 12.5234 21.415L20.2152 22.6822L22.4244 23.0511L23.1662 25.1684L25.6011 32.4667C25.7207 32.8102 25.9356 33.1131 26.2209 33.3402C26.5063 33.5673 26.8505 33.7093 27.2137 33.7499C27.5941 33.7789 27.9746 33.6954 28.3074 33.5099C28.6402 33.3244 28.9105 33.0452 29.0842 32.7073L33.7445 23.7248H43.7584C44.1413 23.7158 44.5134 23.5977 44.8308 23.3844C45.1481 23.1712 45.3971 22.8717 45.5483 22.5218C45.7321 22.1739 45.781 21.771 45.6859 21.3896C45.5908 21.0082 45.3582 20.6747 45.0323 20.4526ZM32.5351 19.9714C32.1836 19.9735 31.8393 20.07 31.5384 20.2507C31.2376 20.4314 30.9913 20.6896 30.8258 20.998L27.8103 26.8526L25.7785 20.6772C25.6797 20.3359 25.4699 20.0369 25.1819 19.827C24.9168 19.6051 24.6013 19.451 24.2627 19.3779L17.8125 18.3353L23.0856 14.4536C23.3824 14.2563 23.6132 13.9753 23.7482 13.6466C23.8833 13.3179 23.9165 12.9565 23.8435 12.6089L22.8437 6.19286L28.1651 10.0104C28.4535 10.2194 28.7945 10.3451 29.1502 10.3734C29.5059 10.4017 29.8626 10.3316 30.1808 10.1708L35.9214 7.13923L33.938 13.3307C33.8422 13.6643 33.8411 14.0178 33.9351 14.352C34.029 14.6861 34.2142 14.9878 34.4701 15.2235L39.1143 19.827L32.5351 19.9714Z" fill="#00CB91"/>
<path d="M1.94674 47.911C1.57814 47.9114 1.217 47.8131 0.905433 47.6276C0.593863 47.442 0.344696 47.1768 0.186979 46.8629C0.0292623 46.5491 -0.0305064 46.1994 0.014641 45.8547C0.0597883 45.5101 0.207992 45.1846 0.441974 44.9162L16.149 26.8041C16.4764 26.4281 16.9488 26.19 17.4625 26.1422C17.9762 26.0944 18.489 26.2408 18.888 26.5492C19.2871 26.8577 19.5398 27.3028 19.5906 27.7868C19.6413 28.2707 19.4859 28.7538 19.1586 29.1299L3.46841 47.242C3.28396 47.4535 3.05152 47.6235 2.78819 47.7392C2.52485 47.855 2.23732 47.9137 1.94674 47.911V47.911Z" fill="#00CB91"/>
</svg>
