<svg width="64" height="64" viewBox="0 0 64 64" fill="none" xmlns="http://www.w3.org/2000/svg">
<path fill-rule="evenodd" clip-rule="evenodd" d="M5.33333 26.6666C5.33333 25.1938 6.52724 23.9999 8 23.9999H56C57.4728 23.9999 58.6667 25.1938 58.6667 26.6666C58.6667 28.1393 57.4728 29.3333 56 29.3333H8C6.52724 29.3333 5.33333 28.1393 5.33333 26.6666Z" fill="black"/>
<path fill-rule="evenodd" clip-rule="evenodd" d="M5.33333 15.9999C5.33333 14.5272 6.52724 13.3333 8 13.3333H56C57.4728 13.3333 58.6667 14.5272 58.6667 15.9999C58.6667 17.4727 57.4728 18.6666 56 18.6666H8C6.52724 18.6666 5.33333 17.4727 5.33333 15.9999Z" fill="black"/>
<path fill-rule="evenodd" clip-rule="evenodd" d="M5.33333 37.3333C5.33333 35.8605 6.52724 34.6666 8 34.6666H56C57.4728 34.6666 58.6667 35.8605 58.6667 37.3333C58.6667 38.806 57.4728 39.9999 56 39.9999H8C6.52724 39.9999 5.33333 38.806 5.33333 37.3333Z" fill="black"/>
<path fill-rule="evenodd" clip-rule="evenodd" d="M5.33333 47.9999C5.33333 46.5272 6.52724 45.3333 8 45.3333H56C57.4728 45.3333 58.6667 46.5272 58.6667 47.9999C58.6667 49.4727 57.4728 50.6666 56 50.6666H8C6.52724 50.6666 5.33333 49.4727 5.33333 47.9999Z" fill="black"/>
</svg>
