<svg width="99" height="64" viewBox="0 0 99 64" fill="none" xmlns="http://www.w3.org/2000/svg">
<path d="M60.791 43C62.6593 43 64 42.1168 64 40.6589C64 39.3709 63.1388 38.6595 61.5937 38.1583L60.2217 37.7167C59.1708 37.3732 58.6745 37.0175 58.6745 36.2202C58.6745 35.4229 59.5649 34.8832 60.6888 34.8832C61.6375 34.8832 62.2652 35.2389 62.8052 35.7786L63.6664 35.1898C63.1117 34.5275 62.0462 34 60.7347 34C58.9394 34 57.5694 34.8709 57.5694 36.2307C57.5694 37.4206 58.2554 38.0935 59.861 38.6086L61.3915 39.0993C62.3402 39.406 62.8949 39.9211 62.8949 40.6817C62.8949 41.5771 61.9607 42.1168 60.8097 42.1168C59.5545 42.1168 58.7225 41.6507 58.1407 40.8779L57.2212 41.4299C57.6841 42.3008 59.0686 43 60.791 43ZM50.4549 43C52.8195 43 54.4521 41.6507 54.4521 39.4813V34.1472H53.3428V39.5058C53.3428 41.1863 52.1897 42.1186 50.4549 42.1186C48.718 42.1186 47.5649 41.1863 47.5649 39.5058V34.1472H46.4556V39.4813C46.4556 41.6525 48.0904 43 50.4549 43ZM36.8785 37.948V35.0181H39.0242C40.3378 35.0181 41.0947 35.521 41.0947 36.4901C41.0947 37.4591 40.3357 37.9498 39.0242 37.9498H36.8785V37.948ZM35.7692 42.8528H36.8785V38.8067H38.0608L42.1602 42.8528H43.6052L39.5204 38.8189C41.199 38.7085 42.2186 37.8131 42.2186 36.4901C42.2186 35.0672 41.0509 34.1489 39.1555 34.1489H35.7692V42.8528ZM29.5972 42.8528H30.7065V34.1472H29.5972V42.8528ZM20.4643 42.8528H21.3692L25.8189 34.1472H24.5929L20.9168 41.3318L17.2407 34.1472H16L20.4643 42.8528Z" fill="#2B2B2A"/>
<path d="M60.7015 32C62.6219 32 64 30.9206 64 29.1386C64 27.5644 63.1148 26.6949 61.5245 26.0824L60.1143 25.5426C59.0341 25.1229 58.524 24.6881 58.524 23.7136C58.524 22.7391 59.4391 22.0794 60.5944 22.0794C61.5695 22.0794 62.2147 22.5142 62.7698 23.1739L63.6549 22.4542C63.0848 21.6447 61.9896 21 60.6394 21C58.794 21 57.3859 22.0644 57.3859 23.7264C57.3859 25.1807 58.091 26.0031 59.7392 26.6328L61.3145 27.2325C62.2897 27.6073 62.8598 28.237 62.8598 29.1665C62.8598 30.2609 61.8996 30.9206 60.7165 30.9206C59.4263 30.9206 58.5711 30.3509 57.971 29.4063L57.0258 30.081C57.5081 31.1454 58.9333 32 60.7015 32ZM49.5887 31.8201H50.5189L55.0926 21.1799H53.8324L50.0538 29.9611L46.2752 21.1799H45L49.5887 31.8201Z" stroke="#2B2B2A" stroke-width="2" stroke-miterlimit="1.788"/>
<path d="M37.3971 25.3708V23.2629H38.8848C39.5703 23.2629 40.0662 23.6504 40.0662 24.3168C40.0662 24.9523 39.5703 25.3708 38.8848 25.3708H37.3971ZM35.0801 32H37.3971V27.4609H37.7763L41.2163 32H44L40.3412 27.151C41.6539 26.655 42.3665 25.7405 42.3665 24.3168C42.3665 22.4879 41.1121 21.0022 39.1598 21.0022H35.078V32H35.0801ZM29.2627 32H31.5817V21H29.2627V32ZM15.2213 32H17.3049L19.376 24.7486L21.4304 32H23.5307L26.7519 21H24.2745L22.393 28.0189L20.3803 21H18.3425L16.3297 27.9879L14.4482 21H12L15.2213 32Z" fill="#2B2B2A"/>
<path d="M87.6367 5.001C88.2195 5.01788 88.7712 5.26687 89.1778 5.69098C102.274 19.0135 102.274 40.6854 89.1778 54.008C76.0815 67.3307 54.7777 67.3307 41.6814 54.008C40.7915 53.1303 40.7708 51.687 41.6336 50.784C42.4965 49.8788 43.9152 49.8577 44.803 50.7354C44.8196 50.7523 44.8341 50.7671 44.8507 50.784C56.2337 62.3637 74.6233 62.3637 86.0084 50.784C97.3915 39.2042 97.3915 20.4969 86.0084 8.91507C85.1207 8.03731 85.1 6.59406 85.9628 5.69098C86.4005 5.23311 87.0082 4.98201 87.6367 5.001Z" fill="black"/>
<path d="M65.2486 0.00210183C75.5088 0.00210183 85.0208 5.62543 90.1448 14.751C95.2851 23.8744 95.2851 35.1274 90.1448 44.2509C85.0208 53.3764 75.5088 58.9997 65.2486 58.9997C64.025 59.0187 63.0187 58.018 63.0003 56.763C62.9818 55.508 63.9574 54.4758 65.181 54.4569C65.2035 54.4569 65.2261 54.4569 65.2507 54.4569C73.9368 54.4569 81.9772 49.7018 86.31 41.9805V41.9784L86.3121 41.9763C90.6633 34.2529 90.6633 24.7447 86.3121 17.0234L86.31 17.0213V17.0192C81.9772 9.30004 73.9368 4.54281 65.2507 4.54281C64.0271 4.56173 63.0208 3.56109 63.0023 2.30609C62.9839 1.05109 63.9595 0.0189196 65.183 0C65.2015 0.00210218 65.224 0.00210183 65.2486 0.00210183Z" fill="#DE0000"/>
<path d="M65.2197 5C71.5709 5 77.9242 7.41895 82.7591 12.2548C92.4143 21.9118 92.4122 37.6496 82.7612 47.3212C81.8903 48.2132 80.4596 48.2278 79.5699 47.3547C78.6781 46.4836 78.6635 45.0527 79.5365 44.1628C79.547 44.1524 79.5574 44.1419 79.5678 44.1315C87.498 36.1853 87.498 23.3761 79.5699 15.4467C71.6231 7.49833 58.8226 7.49833 50.8758 15.4467C50.0069 16.3407 48.5784 16.3616 47.6845 15.4947C46.7906 14.6278 46.7697 13.1969 47.6365 12.3029C47.6532 12.2862 47.6678 12.2715 47.6845 12.2548C52.5153 7.41686 58.8664 5 65.2197 5Z" fill="#FFCF00"/>
<path d="M3.60157 31.6486H6.17412L5.39646 34.2255H2.82391L3.60157 31.6486ZM7.25813 28L6.42745 30.7607H3.85686L4.67379 28H3.77635L2.95941 30.7607H0.975998V31.6486H2.69038L1.91468 34.2255H0V35.1134H1.66136L0.801222 38H1.71242L2.55488 35.1134H5.14117L4.28497 38H5.18241L6.02684 35.1134H8.03578V34.2255H6.29391L7.07157 31.6486H9V30.7607H7.32686L8.14379 28H7.25813Z" fill="#2B2B2A"/>
</svg>
