<svg width="64" height="64" viewBox="0 0 64 64" fill="none" xmlns="http://www.w3.org/2000/svg">
<path fill-rule="evenodd" clip-rule="evenodd" d="M49.8856 14.1143C50.927 15.1557 50.927 16.8441 49.8856 17.8855L17.8856 49.8855C16.8442 50.9269 15.1558 50.9269 14.1144 49.8855C13.073 48.8441 13.073 47.1557 14.1144 46.1143L46.1144 14.1143C47.1558 13.0729 48.8442 13.0729 49.8856 14.1143Z" fill="black"/>
<path fill-rule="evenodd" clip-rule="evenodd" d="M14.1144 14.1143C15.1558 13.0729 16.8442 13.0729 17.8856 14.1143L49.8856 46.1143C50.927 47.1557 50.927 48.8441 49.8856 49.8855C48.8442 50.9269 47.1558 50.9269 46.1144 49.8855L14.1144 17.8855C13.073 16.8441 13.073 15.1557 14.1144 14.1143Z" fill="black"/>
</svg>
